<?xml version="1.0" encoding="iso-8859-1"?>
<!-- Generator: Adobe Illustrator 21.1.0, SVG Export Plug-In . SVG Version: 6.00 Build 0)  -->
<svg version="1.1" id="Layer_1" xmlns="http://www.w3.org/2000/svg" xmlns:xlink="http://www.w3.org/1999/xlink" x="0px" y="0px"
	 viewBox="0 0 100.5 100.5" style="enable-background:new 0 0 100.5 100.5;" xml:space="preserve">
<path d="M61.806,53.522c12.454,0,22.587-10.133,22.587-22.588S74.26,8.346,61.806,8.346h-36.7c-0.829,0-1.5,0.671-1.5,1.5
	s0.671,1.5,1.5,1.5h7.358l-0.07,39.176H25.13c-0.829,0-1.5,0.672-1.5,1.5s0.671,1.5,1.5,1.5h7.259l-0.02,11.052h-7.264
	c-0.829,0-1.5,0.672-1.5,1.5s0.671,1.5,1.5,1.5h7.258l-0.04,22.577c-0.001,0.829,0.669,1.501,1.498,1.503c0,0,0.001,0,0.002,0
	c0.827,0,1.499-0.67,1.5-1.497l0.04-22.583h27.951c0.828,0,1.5-0.672,1.5-1.5s-0.672-1.5-1.5-1.5H35.37l0.02-11.052H61.806z
	 M35.464,11.346h26.342c10.8,0,19.587,8.788,19.587,19.589c0,10.8-8.787,19.587-19.587,19.587H35.395L35.464,11.346z"/>
</svg>
