<?xml version="1.0" encoding="iso-8859-1"?>
<!-- Generator: Adobe Illustrator 22.0.1, SVG Export Plug-In . SVG Version: 6.00 Build 0)  -->
<svg version="1.1" id="Layer_1" xmlns="http://www.w3.org/2000/svg" xmlns:xlink="http://www.w3.org/1999/xlink" x="0px" y="0px"
	 viewBox="0 0 100.25 100.706" style="enable-background:new 0 0 100.25 100.706;" xml:space="preserve">
<g>
	<path d="M94.372,48.394l-3.069-6.951c-0.163-0.37-0.469-0.658-0.847-0.799c-0.378-0.141-0.798-0.124-1.164,0.048l-8.146,3.834
		c-0.75,0.353-1.071,1.246-0.718,1.996c0.352,0.749,1.247,1.071,1.996,0.718l4.312-2.03L75.415,71.835l-6.43-11.601
		c-0.275-0.496-0.812-0.786-1.372-0.772c-0.566,0.023-1.072,0.363-1.306,0.879l-9.659,21.282l-5.801-9.482
		c-0.288-0.47-0.821-0.747-1.357-0.715c-0.549,0.029-1.039,0.355-1.276,0.852L36.685,96.434c-0.357,0.748-0.04,1.643,0.708,2
		c0.208,0.1,0.428,0.147,0.645,0.147c0.56,0,1.097-0.315,1.354-0.854l10.339-21.661l5.835,9.537c0.29,0.474,0.827,0.752,1.372,0.714
		c0.554-0.034,1.044-0.372,1.273-0.877l9.596-21.142l6.474,11.681c0.277,0.501,0.816,0.798,1.39,0.771
		c0.572-0.03,1.078-0.383,1.302-0.911l12.871-30.271l1.784,4.039c0.248,0.561,0.797,0.895,1.373,0.895
		c0.202,0,0.408-0.042,0.605-0.128C94.364,50.037,94.707,49.152,94.372,48.394z"/>
	<path d="M35.958,40.362c10.194,0,18.488-8.292,18.488-18.485c0-10.192-8.294-18.484-18.488-18.484
		c-10.19,0-18.48,8.292-18.48,18.484C17.479,32.07,25.769,40.362,35.958,40.362z M35.958,6.392c8.54,0,15.488,6.946,15.488,15.484
		c0,8.539-6.948,15.485-15.488,15.485c-8.536,0-15.48-6.947-15.48-15.485C20.479,13.339,27.423,6.392,35.958,6.392z"/>
	<path d="M37,78.392c0-0.829-0.671-1.5-1.5-1.5H7.09c0.785-16.098,14.128-28.954,30.417-28.954c7.543,0,14.781,2.778,20.38,7.824
		c0.615,0.555,1.564,0.505,2.118-0.11c0.555-0.615,0.505-1.563-0.11-2.118c-6.151-5.543-14.102-8.595-22.388-8.595
		c-18.446,0-33.453,15.007-33.453,33.454c0,0.829,0.671,1.5,1.5,1.5h29.947C36.329,79.892,37,79.221,37,78.392z"/>
</g>
</svg>
