<?xml version="1.0" encoding="iso-8859-1"?>
<!-- Generator: Adobe Illustrator 21.0.2, SVG Export Plug-In . SVG Version: 6.00 Build 0)  -->
<svg version="1.1" id="Layer_1" xmlns="http://www.w3.org/2000/svg" xmlns:xlink="http://www.w3.org/1999/xlink" x="0px" y="0px"
	 viewBox="0 0 100.5 100.5" style="enable-background:new 0 0 100.5 100.5;" xml:space="preserve">
<path d="M82.256,75.561l-8.716-2.145l8.757-13.081c0.461-0.688,0.276-1.62-0.412-2.081c-0.687-0.46-1.619-0.277-2.08,0.412
	l-9.948,14.86c-0.272,0.407-0.329,0.92-0.152,1.376c0.177,0.457,0.564,0.798,1.04,0.915l8.828,2.172l-8.714,14.629
	c-0.424,0.712-0.19,1.632,0.521,2.056c0.24,0.144,0.505,0.211,0.767,0.211c0.511,0,1.009-0.261,1.29-0.732l9.75-16.369
	c0.243-0.408,0.278-0.908,0.095-1.346C83.098,76,82.718,75.675,82.256,75.561z"/>
<path d="M50,5.114c-24.892,0-45.143,20.25-45.143,45.141c0,17.687,9.913,37.828,28.941,42.118l2.452,0.412
	c0.042,0.007,0.084,0.012,0.127,0.016c1.327,0.108,2.543,0.164,3.659,0.164c4.354,0,7.184-0.843,9.153-2.659
	c2.125-1.958,3.115-4.97,3.115-9.479v-9.511c10.368-1.153,18.459-9.963,18.459-20.636V37.252c0-0.827-0.669-1.497-1.495-1.5
	l-7.074-0.024V23.469c0-0.829-0.672-1.5-1.5-1.5s-1.5,0.671-1.5,1.5v12.249L40.8,35.656V23.47c0-0.829-0.672-1.5-1.5-1.5
	s-1.5,0.671-1.5,1.5v12.176l-7.067-0.024c-0.395-0.013-0.781,0.156-1.063,0.438s-0.441,0.664-0.441,1.062v13.559
	c0,11.22,8.947,20.368,20.076,20.737v9.41c0,3.612-0.683,5.923-2.147,7.273c-1.768,1.627-4.999,2.155-10.474,1.716l-2.307-0.386
	C16.966,85.504,7.856,66.751,7.856,50.256c0-23.236,18.905-42.141,42.143-42.141s42.144,18.904,42.144,42.141
	c0,0.829,0.672,1.5,1.5,1.5s1.5-0.671,1.5-1.5C95.143,25.364,74.892,5.114,50,5.114z M32.229,50.679V38.625l6.923,0.023
	c0.05,0.005,0.098,0.015,0.15,0.015c0.048,0,0.093-0.01,0.14-0.014l28.323,0.096v11.933c0,9.799-7.971,17.772-17.768,17.772
	S32.229,60.478,32.229,50.679z"/>
</svg>
