<?xml version="1.0" encoding="iso-8859-1"?>
<!-- Generator: Adobe Illustrator 21.0.0, SVG Export Plug-In . SVG Version: 6.00 Build 0)  -->
<svg version="1.1" id="Layer_1" xmlns="http://www.w3.org/2000/svg" xmlns:xlink="http://www.w3.org/1999/xlink" x="0px" y="0px"
	 viewBox="0 0 100.354 100.352" style="enable-background:new 0 0 100.354 100.352;" xml:space="preserve">
<g>
	<path d="M16.06,8.94v82.93h66.102V8.94H16.06z M79.161,88.87H19.059V11.94h60.102V88.87z"/>
	<path d="M58.666,61.937c1.36-1.914,2.168-4.245,2.168-6.766c0-6.465-5.259-11.725-11.723-11.725s-11.724,5.26-11.724,11.725
		c0,2.522,0.809,4.854,2.17,6.768l-7.639,10.932c-0.354,0.507-0.361,1.179-0.018,1.693c0.343,0.513,0.966,0.762,1.57,0.631
		l5.838-1.29l1.06,5.456c0.122,0.624,0.623,1.104,1.251,1.197c0.074,0.011,0.148,0.017,0.222,0.017c0.548,0,1.062-0.301,1.324-0.796
		l5.945-11.192l5.948,11.192c0.263,0.495,0.776,0.796,1.324,0.796c0.073,0,0.147-0.005,0.222-0.017
		c0.628-0.094,1.13-0.573,1.251-1.197l1.062-5.456l5.83,1.289c0.604,0.132,1.227-0.117,1.571-0.631
		c0.343-0.514,0.336-1.186-0.017-1.693L58.666,61.937z M49.11,46.446c4.81,0,8.723,3.914,8.723,8.725
		c0,4.808-3.913,8.719-8.723,8.719s-8.724-3.911-8.724-8.719C40.387,50.361,44.3,46.446,49.11,46.446z M42.505,74.628l-0.544-2.805
		c-0.077-0.397-0.312-0.746-0.649-0.968c-0.338-0.222-0.751-0.297-1.146-0.211l-3.584,0.792l5.06-7.241
		c1.45,1.201,3.192,2.061,5.103,2.454L42.505,74.628z M58.063,70.645c-0.394-0.086-0.808-0.011-1.146,0.21
		c-0.338,0.222-0.572,0.571-0.649,0.968l-0.547,2.809l-4.242-7.982c1.911-0.393,3.654-1.254,5.103-2.455l5.057,7.242L58.063,70.645z
		"/>
	<path d="M31.258,31.076h35.244c0.829,0,1.5-0.671,1.5-1.5s-0.671-1.5-1.5-1.5H31.258c-0.829,0-1.5,0.671-1.5,1.5
		S30.429,31.076,31.258,31.076z"/>
</g>
</svg>
