<svg id="Слой_1" data-name="Слой 1" xmlns="http://www.w3.org/2000/svg" viewBox="0 0 100 100"><title>testМонтажная область 25</title><path d="M74,10.5H26A15.52,15.52,0,0,0,10.5,26V74A15.52,15.52,0,0,0,26,89.5H74A15.52,15.52,0,0,0,89.5,74V26A15.52,15.52,0,0,0,74,10.5ZM86.5,26V48.5h-35v-35H74A12.51,12.51,0,0,1,86.5,26ZM26,13.5H48.5v35h-35V26A12.51,12.51,0,0,1,26,13.5ZM13.5,74V51.5h35v35H26A12.51,12.51,0,0,1,13.5,74ZM74,86.5H51.5v-35h35V74A12.51,12.51,0,0,1,74,86.5Z"/><path d="M23,33.5h6.5V40a1.5,1.5,0,0,0,3,0V33.5H39a1.5,1.5,0,0,0,0-3H32.5V24a1.5,1.5,0,0,0-3,0v6.5H23a1.5,1.5,0,0,0,0,3Z"/><path d="M61,33.5H77a1.5,1.5,0,0,0,0-3H61a1.5,1.5,0,0,0,0,3Z"/><path d="M77,66.5H61a1.5,1.5,0,0,0,0,3H77a1.5,1.5,0,0,0,0-3Z"/><path d="M34.12,68l4.94-4.94a1.5,1.5,0,0,0-2.12-2.12L32,65.88l-4.94-4.94a1.5,1.5,0,0,0-2.12,2.12L29.88,68l-4.94,4.94a1.5,1.5,0,1,0,2.12,2.12L32,70.12l4.94,4.94a1.5,1.5,0,0,0,2.12-2.12Z"/><circle cx="69" cy="62" r="2"/><circle cx="69" cy="74" r="2"/></svg>