<svg id="Layer_1" data-name="Layer 1" xmlns="http://www.w3.org/2000/svg" viewBox="0 0 101 101"><title>log_Artboard 2</title><path d="M82.5,42H61V33.5A1.5,1.5,0,0,0,59.5,32h-20A1.5,1.5,0,0,0,38,33.5V42H17.5A1.5,1.5,0,0,0,16,43.5v41A1.5,1.5,0,0,0,17.5,86h65A1.5,1.5,0,0,0,84,84.5v-41A1.5,1.5,0,0,0,82.5,42ZM41,35H58v7H41ZM81,45V61H57.73a1.5,1.5,0,0,0-1.5,1.5,6.46,6.46,0,0,1-12.92,0,1.5,1.5,0,0,0-1.5-1.5H19V45ZM19,83V64H40.43a9.46,9.46,0,0,0,18.68,0H81V83Z"/><circle cx="52" cy="10" r="2"/><circle cx="89" cy="28" r="2"/><circle cx="9" cy="35" r="2"/><path d="M39.91,25.06A13.49,13.49,0,0,0,41.38,25,1.5,1.5,0,1,0,41,22,10.21,10.21,0,0,1,29.77,10.72a1.5,1.5,0,0,0-3-.33A13.22,13.22,0,0,0,39.91,25.06Z"/><path d="M62.09,22.15a12.78,12.78,0,0,0,19.26-5.53,1.5,1.5,0,0,0-2.77-1.16,9.81,9.81,0,0,1-6.37,5.7,9.72,9.72,0,0,1-8.38-1.45,1.5,1.5,0,1,0-1.75,2.44Z"/></svg>