<svg xmlns="http://www.w3.org/2000/svg" width="25" height="25" viewBox="0 0 48 48"><path d="M47.76 24c0 13.12-10.638 23.76-23.76 23.76C10.88 47.76.24 37.12.24 24 .24 10.877 10.877.24 24 .24 37.123.24 47.76 10.877 47.76 24m-12.5 5c-2.622-2.434-2.272-2.042.89-6.25 1.922-2.563 2.695-4.127 2.45-4.797-.228-.64-1.64-.47-1.64-.47l-4.71.03s-.352-.048-.61.106c-.25.15-.414.504-.414.504s-.742 1.982-1.734 3.67c-2.094 3.558-2.935 3.746-3.277 3.523-.796-.516-.597-2.068-.597-3.17 0-3.45.522-4.888-1.02-5.26-.51-.124-.887-.205-2.195-.22-1.678-.015-3.1.008-3.904.4-.537.262-.95.846-.698.88.31.04 1.016.19 1.388.698.484.656.464 2.13.464 2.13s.282 4.057-.646 4.562c-.632.347-1.503-.36-3.37-3.588-.958-1.653-1.68-3.482-1.68-3.482s-.14-.344-.392-.527c-.3-.22-.722-.297-.722-.297l-4.47.018s-.673-.002-.918.29c-.22.26-.018.752-.018.752s3.5 8.104 7.463 12.23c3.64 3.784 7.765 3.36 7.765 3.36h1.867s.566.113.854-.19c.265-.287.256-.645.256-.645s-.034-2.512 1.13-2.883c1.15-.36 2.623 2.43 4.187 3.497 1.18.813 2.078.634 2.078.634l4.18-.056s2.187-.136 1.15-1.858c-.087-.14-.605-1.27-3.11-3.59" fill="#525252"/></svg>