<svg xmlns="http://www.w3.org/2000/svg" width="25" height="25" viewBox="-455 257 48 48"><path d="M-431 257.013c13.248 0 23.987 10.74 23.987 23.987s-10.74 23.987-23.987 23.987-23.987-10.74-23.987-23.987 10.74-23.987 23.987-23.987zm11.815 18.08c-.25-1.337-1.363-2.335-2.642-2.458-3.054-.196-6.12-.355-9.178-.357-3.06-.002-6.113.154-9.167.347-1.284.124-2.397 1.117-2.646 2.46-.284 1.932-.426 3.884-.426 5.835s.142 3.903.426 5.836c.25 1.342 1.362 2.454 2.646 2.577 3.055.193 6.107.39 9.167.39 3.058 0 6.126-.172 9.178-.37 1.28-.124 2.392-1.27 2.642-2.606.286-1.93.43-3.88.43-5.828 0-1.95-.144-3.897-.43-5.827zm-14.59 9.342v-7.115l6.626 3.558-6.626 3.557z" fill="#525252"/></svg>