<svg xmlns="http://www.w3.org/2000/svg" width="25" height="25" viewBox="-455 257 48 48"><path d="M-430.938 256.987c13.227 0 23.95 10.723 23.95 23.95 0 13.227-10.723 23.95-23.95 23.95-13.227 0-23.95-10.723-23.95-23.95 0-13.227 10.723-23.95 23.95-23.95zm9.53 11.726h-19.06c-1.483 0-2.687 1.204-2.687 2.69v19.07c0 1.485 1.203 2.69 2.688 2.69h19.06c1.484 0 2.688-1.205 2.688-2.69v-19.07c0-1.486-1.203-2.69-2.687-2.69zm-9.543 7.53c2.583 0 4.677 2.096 4.677 4.68 0 2.586-2.095 4.68-4.678 4.68-2.585 0-4.68-2.095-4.68-4.68 0-2.584 2.095-4.68 4.68-4.68zm9.37 13.08c0 .54-.436.98-.976.98h-16.78c-.54 0-.976-.44-.976-.98V279.08h2.123c-.146.586-.225 1.2-.225 1.83 0 4.145 3.358 7.505 7.5 7.505 4.142 0 7.5-3.36 7.5-7.504 0-.63-.08-1.244-.226-1.83h2.06v10.244zm.064-14.093c0 .54-.438.978-.977.978h-2.775c-.54 0-.977-.438-.977-.978v-2.777c0-.54.438-.978.977-.978h2.775c.54 0 .977.438.977.978v2.777z" fill="#525252"/></svg>